{
    "asset" : {
        "generator" : "Khronos Blender glTF 2.0 I/O",
        "version" : "2.0"
    },
    "scene" : 0,
    "scenes" : [
        {
            "name" : "Scene",
            "nodes" : [
                0
            ]
        }
    ],
    "nodes" : [
        {
            "mesh" : 0,
            "name" : "Baboon",
            "rotation" : [
                0.7071068286895752,
                0,
                0,
                0.7071067094802856
            ],
            "scale" : [
                0.020944487303495407,
                0.020944487303495407,
                0.020944487303495407
            ]
        }
    ],
    "materials" : [
        {
            "name" : "lambert2SG",
            "pbrMetallicRoughness" : {
                "baseColorTexture" : {
                    "index" : 0,
                    "texCoord" : 0
                },
                "metallicFactor" : 0,
                "roughnessFactor" : 0.9699476361274719
            }
        }
    ],
    "meshes" : [
        {
            "name" : "buffer-0-mesh-0.005",
            "primitives" : [
                {
                    "attributes" : {
                        "POSITION" : 0,
                        "NORMAL" : 1,
                        "TEXCOORD_0" : 2
                    },
                    "indices" : 3,
                    "material" : 0
                }
            ]
        }
    ],
    "textures" : [
        {
            "source" : 0
        }
    ],
    "images" : [
        {
            "bufferView" : 4,
            "mimeType" : "image/png",
            "name" : "Tex_Baboon.png"
        }
    ],
    "accessors" : [
        {
            "bufferView" : 0,
            "componentType" : 5126,
            "count" : 1686,
            "max" : [
                26.1298828125,
                68.01429748535156,
                61.86173629760742
            ],
            "min" : [
                -26.1319580078125,
                -88.90066528320312,
                -45.567955017089844
            ],
            "type" : "VEC3"
        },
        {
            "bufferView" : 1,
            "componentType" : 5126,
            "count" : 1686,
            "type" : "VEC3"
        },
        {
            "bufferView" : 2,
            "componentType" : 5126,
            "count" : 1686,
            "type" : "VEC2"
        },
        {
            "bufferView" : 3,
            "componentType" : 5123,
            "count" : 1686,
            "type" : "SCALAR"
        }
    ],
    "bufferViews" : [
        {
            "buffer" : 0,
            "byteLength" : 20232,
            "byteOffset" : 0
        },
        {
            "buffer" : 0,
            "byteLength" : 20232,
            "byteOffset" : 20232
        },
        {
            "buffer" : 0,
            "byteLength" : 13488,
            "byteOffset" : 40464
        },
        {
            "buffer" : 0,
            "byteLength" : 3372,
            "byteOffset" : 53952
        },
        {
            "buffer" : 0,
            "byteLength" : 126,
            "byteOffset" : 57324
        }
    ],
    "buffers" : [
        {
            "byteLength" : 57452,
            "uri" : "data:application/octet-stream;base64,"
        }
    ]
}
