{
    "asset" : {
        "generator" : "Khronos Blender glTF 2.0 I/O",
        "version" : "2.0"
    },
    "scene" : 0,
    "scenes" : [
        {
            "name" : "Scene",
            "nodes" : [
                0
            ]
        }
    ],
    "nodes" : [
        {
            "mesh" : 0,
            "name" : "lioncub2.002",
            "rotation" : [
                0.8966522812843323,
                -0.07729583233594894,
                0.40933871269226074,
                0.1499391496181488
            ],
            "scale" : [
                0.1002287045121193,
                0.1002287045121193,
                0.1002287045121193
            ],
            "translation" : [
                0.12118452787399292,
                -0.0039147138595581055,
                -0.9226504564285278
            ]
        }
    ],
    "materials" : [
        {
            "name" : "nose.000",
            "pbrMetallicRoughness" : {
                "baseColorFactor" : [
                    0.12213879823684692,
                    0.07806112617254257,
                    0.06830330193042755,
                    1
                ],
                "metallicFactor" : 0,
                "roughnessFactor" : 0.690034806728363
            }
        },
        {
            "name" : "black.000",
            "pbrMetallicRoughness" : {
                "baseColorFactor" : [
                    0.014443841762840748,
                    0.008568125776946545,
                    0.007499032653868198,
                    1
                ],
                "metallicFactor" : 0,
                "roughnessFactor" : 0.22287608683109283
            }
        },
        {
            "name" : "pelt_light.000",
            "pbrMetallicRoughness" : {
                "baseColorFactor" : [
                    0.8970893025398254,
                    0.6344866752624512,
                    0.37806057929992676,
                    1
                ],
                "metallicFactor" : 0,
                "roughnessFactor" : 0.690034806728363
            }
        },
        {
            "name" : "Pelt_1.000",
            "pbrMetallicRoughness" : {
                "baseColorFactor" : [
                    0.3843715786933899,
                    0.2923857569694519,
                    0.16458871960639954,
                    1
                ],
                "metallicFactor" : 0,
                "roughnessFactor" : 0.690034806728363
            }
        }
    ],
    "meshes" : [
        {
            "name" : "Cube.003",
            "primitives" : [
                {
                    "attributes" : {
                        "POSITION" : 0,
                        "NORMAL" : 1
                    },
                    "indices" : 2,
                    "material" : 0
                },
                {
                    "attributes" : {
                        "POSITION" : 3,
                        "NORMAL" : 4
                    },
                    "indices" : 5,
                    "material" : 1
                },
                {
                    "attributes" : {
                        "POSITION" : 6,
                        "NORMAL" : 7
                    },
                    "indices" : 8,
                    "material" : 2
                },
                {
                    "attributes" : {
                        "POSITION" : 9,
                        "NORMAL" : 10
                    },
                    "indices" : 11,
                    "material" : 3
                }
            ]
        }
    ],
    "accessors" : [
        {
            "bufferView" : 0,
            "componentType" : 5126,
            "count" : 103,
            "max" : [
                1.5148301124572754,
                2.0978379249572754,
                2.7645254135131836
            ],
            "min" : [
                -1.0883002281188965,
                0.13862037658691406,
                -2.4994239807128906
            ],
            "type" : "VEC3"
        },
        {
            "bufferView" : 1,
            "componentType" : 5126,
            "count" : 103,
            "type" : "VEC3"
        },
        {
            "bufferView" : 2,
            "componentType" : 5123,
            "count" : 270,
            "type" : "SCALAR"
        },
        {
            "bufferView" : 3,
            "componentType" : 5126,
            "count" : 102,
            "max" : [
                1.2418594360351562,
                2.096224308013916,
                2.2092180252075195
            ],
            "min" : [
                -0.9904994964599609,
                0.2206273078918457,
                -2.522221565246582
            ],
            "type" : "VEC3"
        },
        {
            "bufferView" : 4,
            "componentType" : 5126,
            "count" : 102,
            "type" : "VEC3"
        },
        {
            "bufferView" : 5,
            "componentType" : 5123,
            "count" : 237,
            "type" : "SCALAR"
        },
        {
            "bufferView" : 6,
            "componentType" : 5126,
            "count" : 204,
            "max" : [
                1.4746346473693848,
                2.1004490852355957,
                2.7031707763671875
            ],
            "min" : [
                -1.0507655143737793,
                -0.9034876823425293,
                -2.532024383544922
            ],
            "type" : "VEC3"
        },
        {
            "bufferView" : 7,
            "componentType" : 5126,
            "count" : 204,
            "type" : "VEC3"
        },
        {
            "bufferView" : 8,
            "componentType" : 5123,
            "count" : 534,
            "type" : "SCALAR"
        },
        {
            "bufferView" : 9,
            "componentType" : 5126,
            "count" : 397,
            "max" : [
                1.4018425941467285,
                2.1004490852355957,
                2.7031707763671875
            ],
            "min" : [
                -1.2258858680725098,
                -1.5013031959533691,
                -2.532024383544922
            ],
            "type" : "VEC3"
        },
        {
            "bufferView" : 10,
            "componentType" : 5126,
            "count" : 397,
            "type" : "VEC3"
        },
        {
            "bufferView" : 11,
            "componentType" : 5123,
            "count" : 1752,
            "type" : "SCALAR"
        }
    ],
    "bufferViews" : [
        {
            "buffer" : 0,
            "byteLength" : 1236,
            "byteOffset" : 0
        },
        {
            "buffer" : 0,
            "byteLength" : 1236,
            "byteOffset" : 1236
        },
        {
            "buffer" : 0,
            "byteLength" : 540,
            "byteOffset" : 2472
        },
        {
            "buffer" : 0,
            "byteLength" : 1224,
            "byteOffset" : 3012
        },
        {
            "buffer" : 0,
            "byteLength" : 1224,
            "byteOffset" : 4236
        },
        {
            "buffer" : 0,
            "byteLength" : 474,
            "byteOffset" : 5460
        },
        {
            "buffer" : 0,
            "byteLength" : 2448,
            "byteOffset" : 5936
        },
        {
            "buffer" : 0,
            "byteLength" : 2448,
            "byteOffset" : 8384
        },
        {
            "buffer" : 0,
            "byteLength" : 1068,
            "byteOffset" : 10832
        },
        {
            "buffer" : 0,
            "byteLength" : 4764,
            "byteOffset" : 11900
        },
        {
            "buffer" : 0,
            "byteLength" : 4764,
            "byteOffset" : 16664
        },
        {
            "buffer" : 0,
            "byteLength" : 3504,
            "byteOffset" : 21428
        }
    ],
    "buffers" : [
        {
            "byteLength" : 24932,
            "uri" : "data:application/octet-stream;base64,"
        }
    ]
}
