{
    "asset" : {
        "generator" : "Khronos Blender glTF 2.0 I/O",
        "version" : "2.0"
    },
    "scene" : 0,
    "scenes" : [
        {
            "name" : "Scene",
            "nodes" : [
                0
            ]
        }
    ],
    "nodes" : [
        {
            "mesh" : 0,
            "name" : "Elephant",
            "rotation" : [
                0.7071068286895752,
                0,
                0,
                0.7071067094802856
            ]
        }
    ],
    "materials" : [
        {
            "name" : "Hippopotamus_Mat",
            "pbrMetallicRoughness" : {
                "baseColorTexture" : {
                    "index" : 0,
                    "texCoord" : 0
                },
                "metallicFactor" : 0,
                "roughnessFactor" : 0.9699476361274719
            }
        },
        {
            "name" : "elephant_skin_skin",
            "pbrMetallicRoughness" : {
                "baseColorFactor" : [
                    0.31449100375175476,
                    0.31449100375175476,
                    0.31449100375175476,
                    1
                ],
                "metallicFactor" : 0,
                "roughnessFactor" : 0.7911938428878784
            }
        },
        {
            "name" : "tusks",
            "pbrMetallicRoughness" : {
                "baseColorFactor" : [
                    0.6399999856948853,
                    0.631928026676178,
                    0.3984900116920471,
                    1
                ],
                "metallicFactor" : 0,
                "roughnessFactor" : 0.7448017597198486
            }
        }
    ],
    "meshes" : [
        {
            "name" : "buffer-0-mesh-0",
            "primitives" : [
                {
                    "attributes" : {
                        "POSITION" : 0,
                        "NORMAL" : 1,
                        "TEXCOORD_0" : 2
                    },
                    "indices" : 3,
                    "material" : 0
                },
                {
                    "attributes" : {
                        "POSITION" : 4,
                        "NORMAL" : 5,
                        "TEXCOORD_0" : 6
                    },
                    "indices" : 7,
                    "material" : 1
                },
                {
                    "attributes" : {
                        "POSITION" : 8,
                        "NORMAL" : 9,
                        "TEXCOORD_0" : 10
                    },
                    "indices" : 11,
                    "material" : 2
                }
            ]
        }
    ],
    "textures" : [
        {
            "source" : 0
        }
    ],
    "images" : [
        {
            "bufferView" : 4,
            "mimeType" : "image/png",
            "name" : "Hippopotamus_BaseColor.png.001"
        }
    ],
    "accessors" : [
        {
            "bufferView" : 0,
            "componentType" : 5126,
            "count" : 12,
            "max" : [
                1.0688581466674805,
                2.2638235092163086,
                -0.28335046768188477
            ],
            "min" : [
                -1.068429946899414,
                1.0965596437454224,
                -1.3941864967346191
            ],
            "type" : "VEC3"
        },
        {
            "bufferView" : 1,
            "componentType" : 5126,
            "count" : 12,
            "type" : "VEC3"
        },
        {
            "bufferView" : 2,
            "componentType" : 5126,
            "count" : 12,
            "type" : "VEC2"
        },
        {
            "bufferView" : 3,
            "componentType" : 5123,
            "count" : 12,
            "type" : "SCALAR"
        },
        {
            "bufferView" : 5,
            "componentType" : 5126,
            "count" : 1824,
            "max" : [
                2.665295124053955,
                3.947685718536377,
                3.8762145042419434
            ],
            "min" : [
                -2.664867401123047,
                -5.996371269226074,
                -3.1473841667175293
            ],
            "type" : "VEC3"
        },
        {
            "bufferView" : 6,
            "componentType" : 5126,
            "count" : 1824,
            "type" : "VEC3"
        },
        {
            "bufferView" : 7,
            "componentType" : 5126,
            "count" : 1824,
            "type" : "VEC2"
        },
        {
            "bufferView" : 8,
            "componentType" : 5123,
            "count" : 1824,
            "type" : "SCALAR"
        },
        {
            "bufferView" : 9,
            "componentType" : 5126,
            "count" : 242,
            "max" : [
                1.5017151832580566,
                5.353166580200195,
                0.8113675117492676
            ],
            "min" : [
                -1.5009822845458984,
                2.607682704925537,
                -0.299558162689209
            ],
            "type" : "VEC3"
        },
        {
            "bufferView" : 10,
            "componentType" : 5126,
            "count" : 242,
            "type" : "VEC3"
        },
        {
            "bufferView" : 11,
            "componentType" : 5126,
            "count" : 242,
            "type" : "VEC2"
        },
        {
            "bufferView" : 12,
            "componentType" : 5123,
            "count" : 1368,
            "type" : "SCALAR"
        }
    ],
    "bufferViews" : [
        {
            "buffer" : 0,
            "byteLength" : 144,
            "byteOffset" : 0
        },
        {
            "buffer" : 0,
            "byteLength" : 144,
            "byteOffset" : 144
        },
        {
            "buffer" : 0,
            "byteLength" : 96,
            "byteOffset" : 288
        },
        {
            "buffer" : 0,
            "byteLength" : 24,
            "byteOffset" : 384
        },
        {
            "buffer" : 0,
            "byteLength" : 1941935,
            "byteOffset" : 408
        },
        {
            "buffer" : 0,
            "byteLength" : 21888,
            "byteOffset" : 1942344
        },
        {
            "buffer" : 0,
            "byteLength" : 21888,
            "byteOffset" : 1964232
        },
        {
            "buffer" : 0,
            "byteLength" : 14592,
            "byteOffset" : 1986120
        },
        {
            "buffer" : 0,
            "byteLength" : 3648,
            "byteOffset" : 2000712
        },
        {
            "buffer" : 0,
            "byteLength" : 2904,
            "byteOffset" : 2004360
        },
        {
            "buffer" : 0,
            "byteLength" : 2904,
            "byteOffset" : 2007264
        },
        {
            "buffer" : 0,
            "byteLength" : 1936,
            "byteOffset" : 2010168
        },
        {
            "buffer" : 0,
            "byteLength" : 2736,
            "byteOffset" : 2012104
        }
    ],
    "buffers" : [
        {
            "byteLength" : 2014840,
            "uri" : "data:application/octet-stream;base64,"
        }
    ]
}
