{
    "asset" : {
        "generator" : "Khronos Blender glTF 2.0 I/O",
        "version" : "2.0"
    },
    "scene" : 0,
    "scenes" : [
        {
            "name" : "Scene",
            "nodes" : [
                0
            ]
        }
    ],
    "nodes" : [
        {
            "mesh" : 0,
            "name" : "Giraffe",
            "rotation" : [
                -0.004174766130745411,
                -0.7089245915412903,
                -0.004196460824459791,
                0.7052595019340515
            ],
            "scale" : [
                0.01370323821902275,
                0.013703241012990475,
                0.013703241012990475
            ]
        }
    ],
    "materials" : [
        {
            "name" : "blinn1SG",
            "pbrMetallicRoughness" : {
                "baseColorFactor" : [
                    1,
                    0.8299999833106995,
                    0.03999999910593033,
                    1
                ],
                "metallicFactor" : 0,
                "roughnessFactor" : 0.9699476361274719
            }
        },
        {
            "name" : "blinn2SG",
            "pbrMetallicRoughness" : {
                "baseColorFactor" : [
                    0.1899999976158142,
                    0.09000000357627869,
                    0.05999999865889549,
                    1
                ],
                "metallicFactor" : 0,
                "roughnessFactor" : 0.9699476361274719
            }
        }
    ],
    "meshes" : [
        {
            "name" : "buffer-0-mesh-0.001",
            "primitives" : [
                {
                    "attributes" : {
                        "POSITION" : 0,
                        "NORMAL" : 1,
                        "TEXCOORD_0" : 2
                    },
                    "indices" : 3,
                    "material" : 0
                },
                {
                    "attributes" : {
                        "POSITION" : 4,
                        "NORMAL" : 5,
                        "TEXCOORD_0" : 6
                    },
                    "indices" : 7,
                    "material" : 1
                }
            ]
        }
    ],
    "accessors" : [
        {
            "bufferView" : 0,
            "componentType" : 5126,
            "count" : 1929,
            "max" : [
                353.1458435058594,
                514.31787109375,
                81.84318542480469
            ],
            "min" : [
                -256.4599304199219,
                -357.2340393066406,
                -81.81788635253906
            ],
            "type" : "VEC3"
        },
        {
            "bufferView" : 1,
            "componentType" : 5126,
            "count" : 1929,
            "type" : "VEC3"
        },
        {
            "bufferView" : 2,
            "componentType" : 5126,
            "count" : 1929,
            "type" : "VEC2"
        },
        {
            "bufferView" : 3,
            "componentType" : 5123,
            "count" : 1929,
            "type" : "SCALAR"
        },
        {
            "bufferView" : 4,
            "componentType" : 5126,
            "count" : 1329,
            "max" : [
                359.2188415527344,
                520.9439697265625,
                81.84318542480469
            ],
            "min" : [
                -263.1372375488281,
                -371.95782470703125,
                -81.81788635253906
            ],
            "type" : "VEC3"
        },
        {
            "bufferView" : 5,
            "componentType" : 5126,
            "count" : 1329,
            "type" : "VEC3"
        },
        {
            "bufferView" : 6,
            "componentType" : 5126,
            "count" : 1329,
            "type" : "VEC2"
        },
        {
            "bufferView" : 7,
            "componentType" : 5123,
            "count" : 1329,
            "type" : "SCALAR"
        }
    ],
    "bufferViews" : [
        {
            "buffer" : 0,
            "byteLength" : 23148,
            "byteOffset" : 0
        },
        {
            "buffer" : 0,
            "byteLength" : 23148,
            "byteOffset" : 23148
        },
        {
            "buffer" : 0,
            "byteLength" : 15432,
            "byteOffset" : 46296
        },
        {
            "buffer" : 0,
            "byteLength" : 3858,
            "byteOffset" : 61728
        },
        {
            "buffer" : 0,
            "byteLength" : 15948,
            "byteOffset" : 65588
        },
        {
            "buffer" : 0,
            "byteLength" : 15948,
            "byteOffset" : 81536
        },
        {
            "buffer" : 0,
            "byteLength" : 10632,
            "byteOffset" : 97484
        },
        {
            "buffer" : 0,
            "byteLength" : 2658,
            "byteOffset" : 108116
        }
    ],
    "buffers" : [
        {
            "byteLength" : 110776,
            "uri" : "data:application/octet-stream;base64,"
        }
    ]
}
