{
    "asset" : {
        "generator" : "Khronos Blender glTF 2.0 I/O",
        "version" : "2.0"
    },
    "scene" : 0,
    "scenes" : [
        {
            "name" : "Scene",
            "nodes" : [
                0
            ]
        }
    ],
    "nodes" : [
        {
            "mesh" : 0,
            "name" : "Hyena",
            "rotation" : [
                0.7071068286895752,
                0,
                0,
                0.7071067094802856
            ]
        }
    ],
    "materials" : [
        {
            "name" : "SpottedHyena_mat.001",
            "pbrMetallicRoughness" : {
                "baseColorFactor" : [
                    0.5,
                    0.5,
                    0.5,
                    1
                ],
                "baseColorTexture" : {
                    "index" : 0,
                    "texCoord" : 0
                },
                "metallicFactor" : 0,
                "roughnessFactor" : 0.9699476361274719
            }
        }
    ],
    "meshes" : [
        {
            "name" : "buffer-0-mesh-0.003",
            "primitives" : [
                {
                    "attributes" : {
                        "POSITION" : 0,
                        "NORMAL" : 1,
                        "TEXCOORD_0" : 2
                    },
                    "indices" : 3,
                    "material" : 0
                }
            ]
        }
    ],
    "textures" : [
        {
            "source" : 0
        }
    ],
    "images" : [
        {
            "bufferView" : 4,
            "mimeType" : "image/png",
            "name" : "SpottedHyena_BaseColor.png.001"
        }
    ],
    "accessors" : [
        {
            "bufferView" : 0,
            "componentType" : 5126,
            "count" : 2604,
            "max" : [
                0.5449652671813965,
                2.0293822288513184,
                1.6858762502670288
            ],
            "min" : [
                -0.5449423789978027,
                -2.328225612640381,
                -1.7440786361694336
            ],
            "type" : "VEC3"
        },
        {
            "bufferView" : 1,
            "componentType" : 5126,
            "count" : 2604,
            "type" : "VEC3"
        },
        {
            "bufferView" : 2,
            "componentType" : 5126,
            "count" : 2604,
            "type" : "VEC2"
        },
        {
            "bufferView" : 3,
            "componentType" : 5123,
            "count" : 2604,
            "type" : "SCALAR"
        }
    ],
    "bufferViews" : [
        {
            "buffer" : 0,
            "byteLength" : 31248,
            "byteOffset" : 0
        },
        {
            "buffer" : 0,
            "byteLength" : 31248,
            "byteOffset" : 31248
        },
        {
            "buffer" : 0,
            "byteLength" : 20832,
            "byteOffset" : 62496
        },
        {
            "buffer" : 0,
            "byteLength" : 5208,
            "byteOffset" : 83328
        },
        {
            "buffer" : 0,
            "byteLength" : 1392323,
            "byteOffset" : 88536
        }
    ],
    "buffers" : [
        {
            "byteLength" : 1480860,
            "uri" : "data:application/octet-stream;base64,"
        }
    ]
}
