{
    "asset" : {
        "generator" : "Khronos Blender glTF 2.0 I/O",
        "version" : "2.0"
    },
    "scene" : 0,
    "scenes" : [
        {
            "name" : "Scene",
            "nodes" : [
                0
            ]
        }
    ],
    "nodes" : [
        {
            "mesh" : 0,
            "name" : "Lion",
            "rotation" : [
                0.7071068286895752,
                0,
                0,
                0.7071067094802856
            ],
            "scale" : [
                0.5859878063201904,
                0.5859878063201904,
                0.5859878063201904
            ]
        }
    ],
    "materials" : [
        {
            "name" : "Lion:blinn4SG",
            "pbrMetallicRoughness" : {
                "baseColorTexture" : {
                    "index" : 0,
                    "texCoord" : 0
                },
                "metallicFactor" : 0,
                "roughnessFactor" : 0.9998170137405396
            }
        }
    ],
    "meshes" : [
        {
            "name" : "buffer-0-mesh-0.004",
            "primitives" : [
                {
                    "attributes" : {
                        "POSITION" : 0,
                        "NORMAL" : 1,
                        "TEXCOORD_0" : 2
                    },
                    "indices" : 3,
                    "material" : 0
                }
            ]
        }
    ],
    "textures" : [
        {
            "source" : 0
        }
    ],
    "images" : [
        {
            "bufferView" : 4,
            "mimeType" : "image/png",
            "name" : "Lion_BaseColor.png"
        }
    ],
    "accessors" : [
        {
            "bufferView" : 0,
            "componentType" : 5126,
            "count" : 4050,
            "max" : [
                1.6990070343017578,
                4.833287239074707,
                3.650981903076172
            ],
            "min" : [
                -1.7040119171142578,
                -9.630547523498535,
                -3.112220287322998
            ],
            "type" : "VEC3"
        },
        {
            "bufferView" : 1,
            "componentType" : 5126,
            "count" : 4050,
            "type" : "VEC3"
        },
        {
            "bufferView" : 2,
            "componentType" : 5126,
            "count" : 4050,
            "type" : "VEC2"
        },
        {
            "bufferView" : 3,
            "componentType" : 5123,
            "count" : 4050,
            "type" : "SCALAR"
        }
    ],
    "bufferViews" : [
        {
            "buffer" : 0,
            "byteLength" : 48600,
            "byteOffset" : 0
        },
        {
            "buffer" : 0,
            "byteLength" : 48600,
            "byteOffset" : 48600
        },
        {
            "buffer" : 0,
            "byteLength" : 32400,
            "byteOffset" : 97200
        },
        {
            "buffer" : 0,
            "byteLength" : 8100,
            "byteOffset" : 129600
        },
        {
            "buffer" : 0,
            "byteLength" : 2030773,
            "byteOffset" : 137700
        }
    ],
    "buffers" : [
        {
            "byteLength" : 2168476,
            "uri" : "data:application/octet-stream;base64,"
        }
    ]
}
