{
    "asset" : {
        "generator" : "Khronos Blender glTF 2.0 I/O",
        "version" : "2.0"
    },
    "scene" : 0,
    "scenes" : [
        {
            "name" : "Scene",
            "nodes" : [
                0
            ]
        }
    ],
    "nodes" : [
        {
            "mesh" : 0,
            "name" : "mesh_1728972639",
            "rotation" : [
                0.45053261518478394,
                0.20652544498443604,
                -0.2835776209831238,
                0.8209453821182251
            ],
            "scale" : [
                0.009999999776482582,
                0.009999999776482582,
                0.009999999776482582
            ],
            "translation" : [
                -0.49264058470726013,
                -0.0017312046838924289,
                0.1178034245967865
            ]
        }
    ],
    "materials" : [
        {
            "name" : "material_20___19380.029",
            "pbrMetallicRoughness" : {
                "baseColorFactor" : [
                    0.4745098054409027,
                    0.3333333432674408,
                    0.2823529541492462,
                    1
                ],
                "metallicFactor" : 1,
                "roughnessFactor" : 1
            }
        },
        {
            "name" : "material_20___19380.014",
            "pbrMetallicRoughness" : {
                "baseColorFactor" : [
                    0.4745098054409027,
                    0.3333333432674408,
                    0.2823529541492462,
                    1
                ],
                "metallicFactor" : 1,
                "roughnessFactor" : 1
            }
        },
        {
            "name" : "material_20___19380.016",
            "pbrMetallicRoughness" : {
                "baseColorFactor" : [
                    0.4745098054409027,
                    0.3333333432674408,
                    0.2823529541492462,
                    1
                ],
                "metallicFactor" : 1,
                "roughnessFactor" : 1
            }
        },
        {
            "name" : "material_20___19380.018",
            "pbrMetallicRoughness" : {
                "baseColorFactor" : [
                    0.4745098054409027,
                    0.3333333432674408,
                    0.2823529541492462,
                    1
                ],
                "metallicFactor" : 1,
                "roughnessFactor" : 1
            }
        },
        {
            "name" : "material_20___19380.019",
            "pbrMetallicRoughness" : {
                "baseColorFactor" : [
                    0.4745098054409027,
                    0.3333333432674408,
                    0.2823529541492462,
                    1
                ],
                "metallicFactor" : 1,
                "roughnessFactor" : 1
            }
        },
        {
            "name" : "material_20___19380.020",
            "pbrMetallicRoughness" : {
                "baseColorFactor" : [
                    0.4745098054409027,
                    0.3333333432674408,
                    0.2823529541492462,
                    1
                ],
                "metallicFactor" : 1,
                "roughnessFactor" : 1
            }
        },
        {
            "name" : "material_20___19380.021",
            "pbrMetallicRoughness" : {
                "baseColorFactor" : [
                    0.4745098054409027,
                    0.3333333432674408,
                    0.2823529541492462,
                    1
                ],
                "metallicFactor" : 1,
                "roughnessFactor" : 1
            }
        },
        {
            "name" : "material_20___19380.022",
            "pbrMetallicRoughness" : {
                "baseColorFactor" : [
                    0.4745098054409027,
                    0.3333333432674408,
                    0.2823529541492462,
                    1
                ],
                "metallicFactor" : 1,
                "roughnessFactor" : 1
            }
        },
        {
            "name" : "material_20___19380.023",
            "pbrMetallicRoughness" : {
                "baseColorFactor" : [
                    0.4745098054409027,
                    0.3333333432674408,
                    0.2823529541492462,
                    1
                ],
                "metallicFactor" : 1,
                "roughnessFactor" : 1
            }
        },
        {
            "name" : "material_20___19380.024",
            "pbrMetallicRoughness" : {
                "baseColorFactor" : [
                    0.4745098054409027,
                    0.3333333432674408,
                    0.2823529541492462,
                    1
                ],
                "metallicFactor" : 1,
                "roughnessFactor" : 1
            }
        },
        {
            "name" : "material_20___19380.025",
            "pbrMetallicRoughness" : {
                "baseColorFactor" : [
                    0.4745098054409027,
                    0.3333333432674408,
                    0.2823529541492462,
                    1
                ],
                "metallicFactor" : 1,
                "roughnessFactor" : 1
            }
        },
        {
            "name" : "material_20___19380.026",
            "pbrMetallicRoughness" : {
                "baseColorFactor" : [
                    0.4745098054409027,
                    0.3333333432674408,
                    0.2823529541492462,
                    1
                ],
                "metallicFactor" : 1,
                "roughnessFactor" : 1
            }
        },
        {
            "name" : "material_20___19380.027",
            "pbrMetallicRoughness" : {
                "baseColorFactor" : [
                    0.4745098054409027,
                    0.3333333432674408,
                    0.2823529541492462,
                    1
                ],
                "metallicFactor" : 1,
                "roughnessFactor" : 1
            }
        },
        {
            "name" : "material_20___19380.028",
            "pbrMetallicRoughness" : {
                "baseColorFactor" : [
                    0.4745098054409027,
                    0.3333333432674408,
                    0.2823529541492462,
                    1
                ],
                "metallicFactor" : 1,
                "roughnessFactor" : 1
            }
        }
    ],
    "meshes" : [
        {
            "name" : "mesh.029",
            "primitives" : [
                {
                    "attributes" : {
                        "POSITION" : 0,
                        "NORMAL" : 1
                    },
                    "indices" : 2,
                    "material" : 0
                },
                {
                    "attributes" : {
                        "POSITION" : 3,
                        "NORMAL" : 4
                    },
                    "indices" : 5,
                    "material" : 1
                },
                {
                    "attributes" : {
                        "POSITION" : 6,
                        "NORMAL" : 7
                    },
                    "indices" : 8,
                    "material" : 2
                },
                {
                    "attributes" : {
                        "POSITION" : 9,
                        "NORMAL" : 10
                    },
                    "indices" : 11,
                    "material" : 3
                },
                {
                    "attributes" : {
                        "POSITION" : 12,
                        "NORMAL" : 13
                    },
                    "indices" : 14,
                    "material" : 4
                },
                {
                    "attributes" : {
                        "POSITION" : 15,
                        "NORMAL" : 16
                    },
                    "indices" : 17,
                    "material" : 5
                },
                {
                    "attributes" : {
                        "POSITION" : 18,
                        "NORMAL" : 19
                    },
                    "indices" : 20,
                    "material" : 6
                },
                {
                    "attributes" : {
                        "POSITION" : 21,
                        "NORMAL" : 22
                    },
                    "indices" : 23,
                    "material" : 7
                },
                {
                    "attributes" : {
                        "POSITION" : 24,
                        "NORMAL" : 25
                    },
                    "indices" : 26,
                    "material" : 8
                },
                {
                    "attributes" : {
                        "POSITION" : 27,
                        "NORMAL" : 28
                    },
                    "indices" : 29,
                    "material" : 9
                },
                {
                    "attributes" : {
                        "POSITION" : 30,
                        "NORMAL" : 31
                    },
                    "indices" : 32,
                    "material" : 10
                },
                {
                    "attributes" : {
                        "POSITION" : 33,
                        "NORMAL" : 34
                    },
                    "indices" : 35,
                    "material" : 11
                },
                {
                    "attributes" : {
                        "POSITION" : 36,
                        "NORMAL" : 37
                    },
                    "indices" : 14,
                    "material" : 12
                },
                {
                    "attributes" : {
                        "POSITION" : 38,
                        "NORMAL" : 39
                    },
                    "indices" : 40,
                    "material" : 13
                }
            ]
        }
    ],
    "accessors" : [
        {
            "bufferView" : 0,
            "componentType" : 5126,
            "count" : 13,
            "max" : [
                11.735979080200195,
                9.393775939941406,
                38.11564636230469
            ],
            "min" : [
                -9.511540412902832,
                -11.626180648803711,
                -27.735519409179688
            ],
            "type" : "VEC3"
        },
        {
            "bufferView" : 1,
            "componentType" : 5126,
            "count" : 13,
            "type" : "VEC3"
        },
        {
            "bufferView" : 2,
            "componentType" : 5123,
            "count" : 66,
            "type" : "SCALAR"
        },
        {
            "bufferView" : 3,
            "componentType" : 5126,
            "count" : 40,
            "max" : [
                -2.3071978092193604,
                3.1944689750671387,
                -29.561094284057617
            ],
            "min" : [
                -14.281804084777832,
                -8.5676851272583,
                -38.376094818115234
            ],
            "type" : "VEC3"
        },
        {
            "bufferView" : 4,
            "componentType" : 5126,
            "count" : 40,
            "type" : "VEC3"
        },
        {
            "bufferView" : 5,
            "componentType" : 5123,
            "count" : 276,
            "type" : "SCALAR"
        },
        {
            "bufferView" : 6,
            "componentType" : 5126,
            "count" : 40,
            "max" : [
                1.1953972578048706,
                6.902712821960449,
                -30.073789596557617
            ],
            "min" : [
                -13.07343864440918,
                -6.584726810455322,
                -38.82596969604492
            ],
            "type" : "VEC3"
        },
        {
            "bufferView" : 7,
            "componentType" : 5126,
            "count" : 40,
            "type" : "VEC3"
        },
        {
            "bufferView" : 8,
            "componentType" : 5123,
            "count" : 276,
            "type" : "SCALAR"
        },
        {
            "bufferView" : 9,
            "componentType" : 5126,
            "count" : 40,
            "max" : [
                -5.381147861480713,
                1.443668246269226,
                -27.03681755065918
            ],
            "min" : [
                -16.167802810668945,
                -9.735748291015625,
                -36.96833419799805
            ],
            "type" : "VEC3"
        },
        {
            "bufferView" : 10,
            "componentType" : 5126,
            "count" : 40,
            "type" : "VEC3"
        },
        {
            "bufferView" : 11,
            "componentType" : 5123,
            "count" : 276,
            "type" : "SCALAR"
        },
        {
            "bufferView" : 12,
            "componentType" : 5126,
            "count" : 20,
            "max" : [
                -0.9117709994316101,
                -2.2415969371795654,
                -27.781156539916992
            ],
            "min" : [
                -7.501258850097656,
                -8.137121200561523,
                -33.095272064208984
            ],
            "type" : "VEC3"
        },
        {
            "bufferView" : 13,
            "componentType" : 5126,
            "count" : 20,
            "type" : "VEC3"
        },
        {
            "bufferView" : 14,
            "componentType" : 5123,
            "count" : 108,
            "type" : "SCALAR"
        },
        {
            "bufferView" : 15,
            "componentType" : 5126,
            "count" : 30,
            "max" : [
                -5.9768829345703125,
                3.7663075923919678,
                -28.701292037963867
            ],
            "min" : [
                -15.90334415435791,
                -4.0157470703125,
                -36.94759750366211
            ],
            "type" : "VEC3"
        },
        {
            "bufferView" : 16,
            "componentType" : 5126,
            "count" : 30,
            "type" : "VEC3"
        },
        {
            "bufferView" : 17,
            "componentType" : 5123,
            "count" : 192,
            "type" : "SCALAR"
        },
        {
            "bufferView" : 18,
            "componentType" : 5126,
            "count" : 30,
            "max" : [
                -4.341021537780762,
                5.524520397186279,
                -29.131498336791992
            ],
            "min" : [
                -13.933682441711426,
                -2.7374768257141113,
                -38.1660270690918
            ],
            "type" : "VEC3"
        },
        {
            "bufferView" : 19,
            "componentType" : 5126,
            "count" : 30,
            "type" : "VEC3"
        },
        {
            "bufferView" : 20,
            "componentType" : 5123,
            "count" : 192,
            "type" : "SCALAR"
        },
        {
            "bufferView" : 21,
            "componentType" : 5126,
            "count" : 40,
            "max" : [
                4.700503349304199,
                10.164446830749512,
                -31.884305953979492
            ],
            "min" : [
                -11.393263816833496,
                -3.923813819885254,
                -38.9687614440918
            ],
            "type" : "VEC3"
        },
        {
            "bufferView" : 22,
            "componentType" : 5126,
            "count" : 40,
            "type" : "VEC3"
        },
        {
            "bufferView" : 23,
            "componentType" : 5123,
            "count" : 276,
            "type" : "SCALAR"
        },
        {
            "bufferView" : 24,
            "componentType" : 5126,
            "count" : 30,
            "max" : [
                -0.4747055470943451,
                10.754573822021484,
                -26.546628952026367
            ],
            "min" : [
                -10.593745231628418,
                3.1654577255249023,
                -37.8690299987793
            ],
            "type" : "VEC3"
        },
        {
            "bufferView" : 25,
            "componentType" : 5126,
            "count" : 30,
            "type" : "VEC3"
        },
        {
            "bufferView" : 26,
            "componentType" : 5123,
            "count" : 192,
            "type" : "SCALAR"
        },
        {
            "bufferView" : 27,
            "componentType" : 5126,
            "count" : 98,
            "max" : [
                4.3131914138793945,
                12.074651718139648,
                -18.889801025390625
            ],
            "min" : [
                -13.768253326416016,
                -5.805347442626953,
                -36.99151611328125
            ],
            "type" : "VEC3"
        },
        {
            "bufferView" : 28,
            "componentType" : 5126,
            "count" : 98,
            "type" : "VEC3"
        },
        {
            "bufferView" : 29,
            "componentType" : 5123,
            "count" : 576,
            "type" : "SCALAR"
        },
        {
            "bufferView" : 30,
            "componentType" : 5126,
            "count" : 30,
            "max" : [
                -2.0053250789642334,
                8.967166900634766,
                -27.752775192260742
            ],
            "min" : [
                -12.575028419494629,
                0.13396389782428741,
                -38.238582611083984
            ],
            "type" : "VEC3"
        },
        {
            "bufferView" : 31,
            "componentType" : 5126,
            "count" : 30,
            "type" : "VEC3"
        },
        {
            "bufferView" : 32,
            "componentType" : 5123,
            "count" : 192,
            "type" : "SCALAR"
        },
        {
            "bufferView" : 33,
            "componentType" : 5126,
            "count" : 40,
            "max" : [
                5.487862586975098,
                10.787154197692871,
                -26.455839157104492
            ],
            "min" : [
                -2.8608953952789307,
                -0.31760528683662415,
                -38.69266891479492
            ],
            "type" : "VEC3"
        },
        {
            "bufferView" : 34,
            "componentType" : 5126,
            "count" : 40,
            "type" : "VEC3"
        },
        {
            "bufferView" : 35,
            "componentType" : 5123,
            "count" : 276,
            "type" : "SCALAR"
        },
        {
            "bufferView" : 36,
            "componentType" : 5126,
            "count" : 20,
            "max" : [
                2.473177909851074,
                0.670878529548645,
                -27.456205368041992
            ],
            "min" : [
                -4.778745174407959,
                -6.505613803863525,
                -33.354000091552734
            ],
            "type" : "VEC3"
        },
        {
            "bufferView" : 37,
            "componentType" : 5126,
            "count" : 20,
            "type" : "VEC3"
        },
        {
            "bufferView" : 38,
            "componentType" : 5126,
            "count" : 20,
            "max" : [
                4.494048118591309,
                4.4098005294799805,
                -27.831418991088867
            ],
            "min" : [
                -2.3935670852661133,
                -3.192692756652832,
                -33.479549407958984
            ],
            "type" : "VEC3"
        },
        {
            "bufferView" : 39,
            "componentType" : 5126,
            "count" : 20,
            "type" : "VEC3"
        },
        {
            "bufferView" : 40,
            "componentType" : 5123,
            "count" : 108,
            "type" : "SCALAR"
        }
    ],
    "bufferViews" : [
        {
            "buffer" : 0,
            "byteLength" : 156,
            "byteOffset" : 0
        },
        {
            "buffer" : 0,
            "byteLength" : 156,
            "byteOffset" : 156
        },
        {
            "buffer" : 0,
            "byteLength" : 132,
            "byteOffset" : 312
        },
        {
            "buffer" : 0,
            "byteLength" : 480,
            "byteOffset" : 444
        },
        {
            "buffer" : 0,
            "byteLength" : 480,
            "byteOffset" : 924
        },
        {
            "buffer" : 0,
            "byteLength" : 552,
            "byteOffset" : 1404
        },
        {
            "buffer" : 0,
            "byteLength" : 480,
            "byteOffset" : 1956
        },
        {
            "buffer" : 0,
            "byteLength" : 480,
            "byteOffset" : 2436
        },
        {
            "buffer" : 0,
            "byteLength" : 552,
            "byteOffset" : 2916
        },
        {
            "buffer" : 0,
            "byteLength" : 480,
            "byteOffset" : 3468
        },
        {
            "buffer" : 0,
            "byteLength" : 480,
            "byteOffset" : 3948
        },
        {
            "buffer" : 0,
            "byteLength" : 552,
            "byteOffset" : 4428
        },
        {
            "buffer" : 0,
            "byteLength" : 240,
            "byteOffset" : 4980
        },
        {
            "buffer" : 0,
            "byteLength" : 240,
            "byteOffset" : 5220
        },
        {
            "buffer" : 0,
            "byteLength" : 216,
            "byteOffset" : 5460
        },
        {
            "buffer" : 0,
            "byteLength" : 360,
            "byteOffset" : 5676
        },
        {
            "buffer" : 0,
            "byteLength" : 360,
            "byteOffset" : 6036
        },
        {
            "buffer" : 0,
            "byteLength" : 384,
            "byteOffset" : 6396
        },
        {
            "buffer" : 0,
            "byteLength" : 360,
            "byteOffset" : 6780
        },
        {
            "buffer" : 0,
            "byteLength" : 360,
            "byteOffset" : 7140
        },
        {
            "buffer" : 0,
            "byteLength" : 384,
            "byteOffset" : 7500
        },
        {
            "buffer" : 0,
            "byteLength" : 480,
            "byteOffset" : 7884
        },
        {
            "buffer" : 0,
            "byteLength" : 480,
            "byteOffset" : 8364
        },
        {
            "buffer" : 0,
            "byteLength" : 552,
            "byteOffset" : 8844
        },
        {
            "buffer" : 0,
            "byteLength" : 360,
            "byteOffset" : 9396
        },
        {
            "buffer" : 0,
            "byteLength" : 360,
            "byteOffset" : 9756
        },
        {
            "buffer" : 0,
            "byteLength" : 384,
            "byteOffset" : 10116
        },
        {
            "buffer" : 0,
            "byteLength" : 1176,
            "byteOffset" : 10500
        },
        {
            "buffer" : 0,
            "byteLength" : 1176,
            "byteOffset" : 11676
        },
        {
            "buffer" : 0,
            "byteLength" : 1152,
            "byteOffset" : 12852
        },
        {
            "buffer" : 0,
            "byteLength" : 360,
            "byteOffset" : 14004
        },
        {
            "buffer" : 0,
            "byteLength" : 360,
            "byteOffset" : 14364
        },
        {
            "buffer" : 0,
            "byteLength" : 384,
            "byteOffset" : 14724
        },
        {
            "buffer" : 0,
            "byteLength" : 480,
            "byteOffset" : 15108
        },
        {
            "buffer" : 0,
            "byteLength" : 480,
            "byteOffset" : 15588
        },
        {
            "buffer" : 0,
            "byteLength" : 552,
            "byteOffset" : 16068
        },
        {
            "buffer" : 0,
            "byteLength" : 240,
            "byteOffset" : 16620
        },
        {
            "buffer" : 0,
            "byteLength" : 240,
            "byteOffset" : 16860
        },
        {
            "buffer" : 0,
            "byteLength" : 240,
            "byteOffset" : 17100
        },
        {
            "buffer" : 0,
            "byteLength" : 240,
            "byteOffset" : 17340
        },
        {
            "buffer" : 0,
            "byteLength" : 216,
            "byteOffset" : 17580
        }
    ],
    "buffers" : [
        {
            "byteLength" : 17796,
            "uri" : "data:application/octet-stream;base64,"
        }
    ]
}
