{
    "asset" : {
        "generator" : "Khronos Blender glTF 2.0 I/O",
        "version" : "2.0"
    },
    "scene" : 0,
    "scenes" : [
        {
            "name" : "Scene",
            "nodes" : [
                0
            ]
        }
    ],
    "nodes" : [
        {
            "mesh" : 0,
            "name" : "Rhino",
            "rotation" : [
                0.00544931273907423,
                0.7070857286453247,
                -0.7070858478546143,
                0.00544931273907423
            ]
        }
    ],
    "materials" : [
        {
            "name" : "Material.004",
            "pbrMetallicRoughness" : {
                "baseColorFactor" : [
                    0.6399999856948853,
                    0.6399999856948853,
                    0.6399999856948853,
                    1
                ],
                "baseColorTexture" : {
                    "index" : 0,
                    "texCoord" : 0
                },
                "metallicFactor" : 0,
                "roughnessFactor" : 0.7448017597198486
            }
        }
    ],
    "meshes" : [
        {
            "name" : "buffer-0-mesh-0.006",
            "primitives" : [
                {
                    "attributes" : {
                        "POSITION" : 0,
                        "NORMAL" : 1,
                        "TEXCOORD_0" : 2
                    },
                    "indices" : 3,
                    "material" : 0
                }
            ]
        }
    ],
    "textures" : [
        {
            "source" : 0
        }
    ],
    "images" : [
        {
            "bufferView" : 4,
            "mimeType" : "image/png",
            "name" : "rhino-uv.png"
        }
    ],
    "accessors" : [
        {
            "bufferView" : 0,
            "componentType" : 5126,
            "count" : 2250,
            "max" : [
                1.6982097625732422,
                4.366431713104248,
                1.8050624132156372
            ],
            "min" : [
                -1.698221206665039,
                -4.757143974304199,
                -2.6828994750976562
            ],
            "type" : "VEC3"
        },
        {
            "bufferView" : 1,
            "componentType" : 5126,
            "count" : 2250,
            "type" : "VEC3"
        },
        {
            "bufferView" : 2,
            "componentType" : 5126,
            "count" : 2250,
            "type" : "VEC2"
        },
        {
            "bufferView" : 3,
            "componentType" : 5123,
            "count" : 3075,
            "type" : "SCALAR"
        }
    ],
    "bufferViews" : [
        {
            "buffer" : 0,
            "byteLength" : 27000,
            "byteOffset" : 0
        },
        {
            "buffer" : 0,
            "byteLength" : 27000,
            "byteOffset" : 27000
        },
        {
            "buffer" : 0,
            "byteLength" : 18000,
            "byteOffset" : 54000
        },
        {
            "buffer" : 0,
            "byteLength" : 6150,
            "byteOffset" : 72000
        },
        {
            "buffer" : 0,
            "byteLength" : 6564,
            "byteOffset" : 78152
        }
    ],
    "buffers" : [
        {
            "byteLength" : 84716,
            "uri" : "data:application/octet-stream;base64,"
        }
    ]
}
