{
    "asset" : {
        "generator" : "Khronos Blender glTF 2.0 I/O",
        "version" : "2.0"
    },
    "scene" : 0,
    "scenes" : [
        {
            "name" : "Scene",
            "nodes" : [
                0
            ]
        }
    ],
    "nodes" : [
        {
            "mesh" : 0,
            "name" : "Zebra",
            "rotation" : [
                0.49726402759552,
                0.5027212500572205,
                -0.50272136926651,
                0.497263640165329
            ],
            "scale" : [
                0.023672742769122124,
                0.023672740906476974,
                0.023672740906476974
            ]
        }
    ],
    "materials" : [
        {
            "name" : "F06292",
            "pbrMetallicRoughness" : {
                "baseColorFactor" : [
                    0.9411759972572327,
                    0.38431400060653687,
                    0.5725489854812622,
                    1
                ],
                "metallicFactor" : 0,
                "roughnessFactor" : 0.749321699142456
            }
        },
        {
            "name" : "1A1A1A",
            "pbrMetallicRoughness" : {
                "baseColorFactor" : [
                    0.10196100175380707,
                    0.10196100175380707,
                    0.10196100175380707,
                    1
                ],
                "metallicFactor" : 0,
                "roughnessFactor" : 0.749321699142456
            }
        },
        {
            "name" : "FFFFFF",
            "pbrMetallicRoughness" : {
                "baseColorFactor" : [
                    1,
                    1,
                    1,
                    1
                ],
                "metallicFactor" : 0,
                "roughnessFactor" : 0.749321699142456
            }
        }
    ],
    "meshes" : [
        {
            "name" : "buffer-0-mesh-0.007",
            "primitives" : [
                {
                    "attributes" : {
                        "POSITION" : 0,
                        "NORMAL" : 1,
                        "TEXCOORD_0" : 2
                    },
                    "indices" : 3,
                    "material" : 0
                },
                {
                    "attributes" : {
                        "POSITION" : 4,
                        "NORMAL" : 5,
                        "TEXCOORD_0" : 6
                    },
                    "indices" : 7,
                    "material" : 1
                },
                {
                    "attributes" : {
                        "POSITION" : 8,
                        "NORMAL" : 9,
                        "TEXCOORD_0" : 10
                    },
                    "indices" : 11,
                    "material" : 2
                }
            ]
        }
    ],
    "accessors" : [
        {
            "bufferView" : 0,
            "componentType" : 5126,
            "count" : 24,
            "max" : [
                -52.47852325439453,
                10.17120361328125,
                -83.74905395507812
            ],
            "min" : [
                -55.67969512939453,
                -10.074951171875,
                -94.61563110351562
            ],
            "type" : "VEC3"
        },
        {
            "bufferView" : 1,
            "componentType" : 5126,
            "count" : 24,
            "type" : "VEC3"
        },
        {
            "bufferView" : 2,
            "componentType" : 5126,
            "count" : 24,
            "type" : "VEC2"
        },
        {
            "bufferView" : 3,
            "componentType" : 5123,
            "count" : 24,
            "type" : "SCALAR"
        },
        {
            "bufferView" : 4,
            "componentType" : 5126,
            "count" : 2970,
            "max" : [
                168.43899536132812,
                29.77935791015625,
                95.56962585449219
            ],
            "min" : [
                -102.53841400146484,
                -29.78656005859375,
                -100.78608703613281
            ],
            "type" : "VEC3"
        },
        {
            "bufferView" : 5,
            "componentType" : 5126,
            "count" : 2970,
            "type" : "VEC3"
        },
        {
            "bufferView" : 6,
            "componentType" : 5126,
            "count" : 2970,
            "type" : "VEC2"
        },
        {
            "bufferView" : 7,
            "componentType" : 5123,
            "count" : 2970,
            "type" : "SCALAR"
        },
        {
            "bufferView" : 8,
            "componentType" : 5126,
            "count" : 1740,
            "max" : [
                95.84375762939453,
                29.77935791015625,
                89.05299377441406
            ],
            "min" : [
                -95.65888977050781,
                -29.78656005859375,
                -85.84426879882812
            ],
            "type" : "VEC3"
        },
        {
            "bufferView" : 9,
            "componentType" : 5126,
            "count" : 1740,
            "type" : "VEC3"
        },
        {
            "bufferView" : 10,
            "componentType" : 5126,
            "count" : 1740,
            "type" : "VEC2"
        },
        {
            "bufferView" : 11,
            "componentType" : 5123,
            "count" : 1740,
            "type" : "SCALAR"
        }
    ],
    "bufferViews" : [
        {
            "buffer" : 0,
            "byteLength" : 288,
            "byteOffset" : 0
        },
        {
            "buffer" : 0,
            "byteLength" : 288,
            "byteOffset" : 288
        },
        {
            "buffer" : 0,
            "byteLength" : 192,
            "byteOffset" : 576
        },
        {
            "buffer" : 0,
            "byteLength" : 48,
            "byteOffset" : 768
        },
        {
            "buffer" : 0,
            "byteLength" : 35640,
            "byteOffset" : 816
        },
        {
            "buffer" : 0,
            "byteLength" : 35640,
            "byteOffset" : 36456
        },
        {
            "buffer" : 0,
            "byteLength" : 23760,
            "byteOffset" : 72096
        },
        {
            "buffer" : 0,
            "byteLength" : 5940,
            "byteOffset" : 95856
        },
        {
            "buffer" : 0,
            "byteLength" : 20880,
            "byteOffset" : 101796
        },
        {
            "buffer" : 0,
            "byteLength" : 20880,
            "byteOffset" : 122676
        },
        {
            "buffer" : 0,
            "byteLength" : 13920,
            "byteOffset" : 143556
        },
        {
            "buffer" : 0,
            "byteLength" : 3480,
            "byteOffset" : 157476
        }
    ],
    "buffers" : [
        {
            "byteLength" : 160956,
            "uri" : "data:application/octet-stream;base64,"
        }
    ]
}
